<svg aria-hidden="true" style="position: absolute; width: 0; height: 0; overflow: hidden;" version="1.1" xmlns="http://www.w3.org/2000/svg" xmlns:xlink="http://www.w3.org/1999/xlink">
<defs>

<symbol id="client-1" viewBox="0 0 59 32">
<path d="M21.714 4l4 3.829h-7.429v18.457h19.429v-7.029l4 3.771v-19.029h-20zM37.543 18.8l-11.371-10.857h11.371v10.857zM34 23.6h-12.629v-12.457h0.857v11.6h11.771v0.857zM23.886 29.771l-0.457-0.971h-0.4l0.686 1.257v0.8h0.343v-0.743l0.686-1.257h-0.4l-0.457 0.971zM25.6 28.8h0.114l0.743 2h-0.343l-0.171-0.457h-0.8l-0.171 0.457h-0.343l0.743-2h0.229zM25.257 30.057h0.571l-0.286-0.857-0.286 0.857zM27.714 29.714c-0.050-0.062-0.106-0.136-0.16-0.212l-0.011-0.016v-0.514l0.229-0.171h0.514c0.154 0.076 0.258 0.231 0.258 0.411 0 0.058-0.011 0.113-0.030 0.163l0.001-0.003-0.114 0.171-0.171 0.114-0.114 0.114 0.4 0.457c0.070-0.114 0.112-0.252 0.114-0.399v-0.001h0.286v0.286c-0.033 0.132-0.092 0.247-0.173 0.344l0.001-0.001 0.286 0.343h-0.457l-0.114-0.114-0.229 0.114c-0.093 0.035-0.201 0.056-0.314 0.056s-0.221-0.020-0.321-0.058l0.006 0.002c-0.097-0.054-0.175-0.131-0.227-0.226l-0.002-0.003c-0.048-0.082-0.077-0.181-0.077-0.286s0.028-0.204 0.078-0.288l-0.001 0.003 0.286-0.286zM27.886 29.943h-0.057l-0.114 0.114c-0.029 0.049-0.046 0.108-0.046 0.171s0.017 0.122 0.047 0.173l-0.001-0.002c0 0.057 0 0.114 0.114 0.114l0.171 0.057c0.129 0 0.249-0.043 0.344-0.115l-0.001 0.001-0.457-0.571zM27.943 29.543l0.114-0.057 0.171-0.114v-0.286l-0.229-0.057c-0.074 0.009-0.136 0.052-0.171 0.113l-0.001 0.001c-0.015 0.034-0.024 0.073-0.024 0.114s0.009 0.081 0.025 0.116l-0.001-0.002 0.114 0.171zM31.486 30.114h-0.343v0.286l-0.171 0.114c-0.043 0.012-0.092 0.018-0.143 0.018s-0.1-0.007-0.147-0.019l0.004 0.001h-0.171c-0.068-0.024-0.126-0.063-0.171-0.114l-0-0-0.057-0.229v-0.743l0.057-0.229 0.171-0.114h0.457l0.114 0.114 0.057 0.229h0.343c0-0.114 0-0.229-0.114-0.343 0-0.114-0.114-0.171-0.229-0.229l-0.4-0.114-0.343 0.057-0.286 0.229-0.171 0.286v0.971c0 0.114 0.114 0.229 0.171 0.286 0.134 0.171 0.34 0.281 0.571 0.286h0.001c0.171 0 0.343 0 0.457-0.114 0.114 0 0.171-0.114 0.229-0.229l0.114-0.343zM33.429 29.829v-0.514l-0.229-0.286-0.229-0.229h-0.686l-0.286 0.229-0.171 0.286-0.057 0.4v0.571l0.229 0.286c0.134 0.171 0.34 0.281 0.571 0.286h0.001l0.4-0.057 0.229-0.229 0.171-0.286 0.057-0.457zM33.143 29.714v0.457l-0.114 0.229-0.171 0.114h-0.4c-0.067-0.026-0.125-0.065-0.171-0.114l-0-0-0.114-0.229v-0.743l0.114-0.229 0.171-0.114h0.4l0.171 0.114 0.114 0.229v0.286z"></path>
</symbol>
<symbol id="client-2" viewBox="0 0 59 32">
<path d="M28.629 3.429h-0.629c-0.111-0.003-0.241-0.005-0.371-0.005s-0.261 0.002-0.39 0.005l0.019-0c-2.114 0-4.171 0.571-6.057 1.429l-0.286 0.114v12.743l0.571-0.229c1.867-0.634 4.020-1.027 6.257-1.085l0.029-0.001v1.714h-0.629c-2.888 0.147-5.563 0.933-7.926 2.22l0.097-0.048v-16.229c2.453-1.467 5.41-2.337 8.57-2.343h0.288c1.080 0.049 2.099 0.192 3.084 0.422l-0.113-0.022v1.6c-0.686-0.171-1.371-0.229-2.057-0.286h-0.514zM31.486 5.086h1.143c3.167-0.009 6.139-0.833 8.72-2.275l-0.091 0.047v16c-2.435 1.423-5.361 2.263-8.483 2.263-1.163 0-2.3-0.117-3.398-0.339l0.109 0.018v-16c0.596 0.138 1.3 0.24 2.020 0.284l0.037 0.002zM39.6 5.2l-0.571 0.171-1.6 0.514c-1.442 0.38-3.098 0.598-4.805 0.598-0.36 0-0.718-0.010-1.073-0.029l0.050 0.002h-0.457v12.971h0.343l1.143 0.114c2.478-0.005 4.817-0.595 6.888-1.64l-0.088 0.040 0.229-0.114v-12.629z"></path>
<path d="M20.4 25.829c-0.15-0.139-0.35-0.226-0.571-0.229h-0.401c-0.336 0.121-0.573 0.437-0.573 0.809 0 0.017 0 0.034 0.001 0.051l-0-0.002v2.171c0 0.171 0 0.343 0.114 0.457 0 0.114 0.114 0.229 0.171 0.286l0.343 0.171h0.629c0.338-0.139 0.571-0.466 0.571-0.848 0-0.003-0-0.007-0-0.010v0-0.229h-0.571v0.343l-0.229 0.229h-0.114c-0.016 0.003-0.035 0.005-0.053 0.005-0.095 0-0.18-0.047-0.232-0.119l-0.001-0.001-0.057-0.343v-2.057l0.057-0.286c0.045-0.102 0.145-0.172 0.262-0.172 0.008 0 0.016 0 0.024 0.001l-0.001-0c0.103 0.013 0.188 0.079 0.228 0.17l0.001 0.002c0.114 0.057 0.114 0.171 0.114 0.286v0.171h0.571v-0.229c-0.007-0.267-0.115-0.507-0.286-0.686l0 0zM23.771 25.829c-0.174-0.14-0.399-0.225-0.643-0.225-0.118 0-0.231 0.020-0.336 0.056l0.007-0.002c-0.114 0-0.229 0.057-0.286 0.171l-0.229 0.286-0.057 0.4v2.114l0.057 0.4c0 0.114 0.114 0.229 0.229 0.286 0.057 0.114 0.171 0.171 0.286 0.171 0.102 0.040 0.22 0.063 0.343 0.063s0.241-0.023 0.349-0.065l-0.007 0.002c0.114 0 0.229-0.057 0.286-0.171 0.176-0.167 0.286-0.403 0.286-0.664 0-0.008-0-0.015-0-0.023l0 0.001v-2.114l-0.057-0.4c0-0.114-0.114-0.229-0.229-0.286zM23.543 28.629c0 0.002 0 0.004 0 0.006 0 0.109-0.044 0.208-0.114 0.28l0-0c-0.073 0.074-0.174 0.12-0.286 0.12s-0.213-0.046-0.286-0.12l-0-0c-0.071-0.072-0.114-0.171-0.114-0.28 0-0.002 0-0.004 0-0.006v0-2.114c-0-0.002-0-0.004-0-0.006 0-0.109 0.044-0.208 0.114-0.28l-0 0c0.073-0.074 0.174-0.12 0.286-0.12s0.213 0.046 0.286 0.12l0 0c0.071 0.072 0.114 0.171 0.114 0.28 0 0.002 0 0.004-0 0.006v-0 2.114zM28.229 29.543v-3.943h-0.571l-0.686 2.114-0.743-2.114h-0.571v3.943h0.571v-2.4l0.571 1.714h0.286l0.571-1.714v2.4h0.571zM31.429 25.886l-0.343-0.229h-1.257v3.886h0.571v-1.543h0.286c0.171 0 0.343 0 0.514-0.114l0.286-0.286 0.171-0.343c0.030-0.155 0.048-0.332 0.048-0.514s-0.017-0.36-0.050-0.532l0.003 0.018-0.229-0.343zM31.143 27.029l-0.057 0.286-0.171 0.114c-0.043 0.012-0.092 0.018-0.143 0.018s-0.1-0.007-0.147-0.019l0.004 0.001h-0.229v-1.314h0.286l0.229 0.057 0.171 0.171v0.743zM34.057 25.6h-0.457l-0.857 3.943h0.571l0.171-0.857h0.743l0.171 0.857h0.571l-0.914-3.943zM33.543 28.171l0.286-1.429 0.286 1.429h-0.571zM37.714 28l-0.914-2.4h-0.514v3.943h0.571v-2.343l0.857 2.343h0.571v-3.943h-0.571v2.4zM41.143 25.6l-0.457 1.543-0.514-1.543h-0.571l0.8 2.286v1.657h0.571v-1.714l0.743-2.229h-0.571zM18.857 30.629h0.286v0.8h0.171v-0.8h0.286v-0.114h-0.743v0.114zM21.143 30.514l-0.343 0.914h0.171l0.057-0.229h0.4l0.057 0.229h0.229l-0.4-0.914h-0.171zM21.143 31.086l0.057-0.4 0.171 0.343h-0.286zM23.429 31.086h0.171v0.114l-0.229 0.057c-0.006 0.001-0.013 0.001-0.019 0.001-0.059 0-0.112-0.022-0.152-0.058l0 0-0.114-0.229c0-0.229 0.114-0.343 0.286-0.343 0.017-0.006 0.037-0.010 0.057-0.010 0.095 0 0.171 0.077 0.171 0.171 0 0.003-0 0.007-0 0.010l0-0h0.171c0-0.229-0.171-0.343-0.4-0.343l-0.343 0.114c-0.076 0.081-0.123 0.191-0.123 0.312 0 0.031 0.003 0.062 0.009 0.091l-0-0.003c0 0.114 0 0.229 0.114 0.343 0.080 0.072 0.187 0.116 0.304 0.116 0.014 0 0.027-0.001 0.040-0.002l-0.002 0c0.171 0 0.286 0 0.4-0.171v-0.343h-0.4v0.171zM25.714 30.514h-0.229v0.914h0.629v-0.171h-0.4v-0.743zM27.6 30.514h-0.171v0.914h0.171v-0.914zM29.486 31.086l-0.343-0.571h-0.171v0.914h0.171v-0.571l0.343 0.571h0.171v-0.914h-0.171v0.571zM31.2 31.029h0.457v-0.171h-0.457v-0.229h0.514v-0.114h-0.686v0.914h0.686v-0.171h-0.514v-0.229zM35.429 30.857h-0.4v-0.343h-0.171v0.914h0.171v-0.4h0.343v0.4h0.171v-0.914h-0.114v0.343zM37.143 31.029h0.4v-0.171h-0.4v-0.229h0.514v-0.114h-0.686v0.914h0.686v-0.171h-0.514v-0.229zM39.429 31.029c0.171 0 0.229-0.114 0.229-0.286 0.001-0.006 0.001-0.013 0.001-0.019 0-0.059-0.022-0.112-0.058-0.152l0 0c-0.069-0.037-0.152-0.059-0.24-0.059-0.016 0-0.032 0.001-0.048 0.002l0.002-0h-0.4v0.914h0.229v-0.4h0.114l0.057 0.114 0.229 0.286h0.229l-0.114-0.171-0.229-0.229zM39.257 30.857h-0.114v-0.229h0.286c0.063 0 0.114 0.051 0.114 0.114s-0.051 0.114-0.114 0.114v0c-0.026 0.004-0.055 0.006-0.086 0.006s-0.060-0.002-0.089-0.007l0.003 0zM41.2 31.029h0.457v-0.171h-0.457v-0.229h0.514v-0.114h-0.686v0.914h0.686v-0.171h-0.514v-0.229z"></path>
</symbol>
<symbol id="client-3" viewBox="0 0 59 32">
<path d="M21.029 28.114h0.057l0.114 0.171-0.343 0.229-0.514 0.057-0.457-0.057c-0.171-0.057-0.286-0.114-0.343-0.229-0.114-0.114-0.229-0.229-0.229-0.343-0.056-0.126-0.088-0.274-0.088-0.429s0.032-0.302 0.091-0.436l-0.003 0.007c0-0.114 0.114-0.229 0.229-0.286l0.4-0.229c0.137-0.046 0.294-0.072 0.457-0.072s0.321 0.026 0.468 0.075l-0.011-0.003 0.343 0.171-0.114 0.114h-0.229c-0.128-0.072-0.28-0.114-0.443-0.114-0.005 0-0.010 0-0.015 0h-0.342l-0.286 0.229-0.171 0.229-0.057 0.343 0.057 0.343c0.089 0.191 0.253 0.336 0.452 0.399l0.005 0.001h0.514c0.001 0 0.003 0 0.004 0 0.147 0 0.284-0.043 0.399-0.116l-0.003 0.002h0.057zM24.686 27.543c0 0.114 0 0.286-0.114 0.4 0 0.114-0.114 0.229-0.229 0.343-0.097 0.094-0.21 0.171-0.336 0.226l-0.007 0.003h-0.971c-0.155-0.051-0.288-0.13-0.401-0.23l0.001 0.001-0.229-0.343c-0.114-0.286-0.114-0.571 0-0.857l0.229-0.286 0.4-0.229c0.286-0.114 0.629-0.114 0.971 0 0.114 0 0.229 0.114 0.343 0.229 0.21 0.179 0.343 0.445 0.343 0.741 0 0.001 0 0.002 0 0.002v-0zM24.343 27.543l-0.057-0.343c-0.083-0.196-0.249-0.343-0.452-0.399l-0.005-0.001c-0.102-0.033-0.22-0.053-0.343-0.053s-0.24 0.019-0.351 0.055l0.008-0.002-0.229 0.114c-0.114 0.114-0.171 0.171-0.171 0.286-0.114 0.229-0.114 0.457 0 0.686 0.071 0.185 0.215 0.329 0.395 0.398l0.005 0.002h0.686c0.114 0 0.229-0.114 0.286-0.171l0.171-0.229 0.057-0.343zM27.143 27.886v0.057l0.114-0.057v-0.057l0.8-1.257h0.057l0.057-0.057h0.286v2.057h-0.286v-1.714l-0.857 1.257v0.057h-0.229l-0.857-1.314v1.714h-0.286v-2.057h0.343l0.857 1.314v0.057zM30.171 27.771v0.8h-0.286v-2.057h1.086l0.286 0.171 0.171 0.171v0.286c0.001 0.014 0.002 0.031 0.002 0.047 0 0.161-0.066 0.306-0.173 0.41l-0 0-0.286 0.114-0.4 0.057h-0.4zM30.171 27.543h0.686c0.114 0 0.171-0.057 0.171-0.114l0.114-0.114 0.057-0.171v-0.171l-0.114-0.114c-0.171-0.114-0.286-0.114-0.457-0.114h-0.4v0.8zM34.457 28.571h-0.286l-0.114-0.114-0.171-0.457h-1.143l-0.171 0.457v0.057h-0.4l0.914-2h0.343l0.971 2.057zM32.857 27.771h0.914l-0.4-0.8v-0.171l-0.114 0.057v0.114l-0.4 0.8zM35.771 26.514h0.057l1.371 1.6v-1.6h0.286v2.057h-0.171l-0.057-0.057-1.371-1.543v1.6h-0.286v-2.057h0.171zM39.829 27.714v0.857h-0.286v-0.857l-0.914-1.2h0.343l0.057 0.057 0.571 0.8c0.021 0.047 0.040 0.104 0.055 0.163l0.002 0.008 0.057-0.057 0.057-0.114 0.571-0.8 0.057-0.057h0.286l-0.857 1.2zM27.029 23.086h0.4c2.114-0.743 3.943-2.114 5.143-3.771 1.257-1.714 1.943-3.657 1.886-5.657l-2.343-2c0.457 2.114 0.229 4.343-0.686 6.343-0.973 2.134-2.481 3.88-4.355 5.115l-0.045 0.028z"></path>
<path d="M26.171 23.029h0.057c2.171-1.314 3.771-3.143 4.686-5.257 0.528-1.16 0.836-2.515 0.836-3.942 0-0.957-0.138-1.882-0.396-2.755l0.017 0.069-3.371-2.857c1.079 1.77 1.718 3.912 1.718 6.202 0 3.337-1.355 6.357-3.546 8.54l-0 0zM37.486 16c-0.654 2.341-2.049 4.293-3.912 5.636l-0.030 0.021c-0.53 0.403-1.129 0.782-1.759 1.11l-0.070 0.033c1.6-0.4 3.086-1.143 4.343-2.114 1.2-0.971 2.171-2.171 2.8-3.486l-1.371-1.143z"></path>
<path d="M36.971 15.714l-1.943-1.714c0 1.943-0.629 3.771-1.771 5.371s-2.857 2.914-4.743 3.771h1.314c1.819-0.653 3.367-1.669 4.626-2.968l0.003-0.003c1.257-1.314 2.114-2.857 2.514-4.457zM26.457 7.086l-2.286-1.943c-2.072 0.652-3.817 1.844-5.129 3.412l-0.014 0.017c-1.2 1.543-1.886 3.429-1.886 5.257 0.030 2.212 0.894 4.217 2.291 5.72l-0.005-0.005c1.543 1.714 3.657 2.857 6 3.371 2.114-2.229 3.371-4.914 3.543-7.771s-0.686-5.657-2.514-8zM42.286 15.429c0-2.514-1.143-4.857-3.2-6.629-2.112-1.702-4.828-2.732-7.784-2.732-1.385 0-2.716 0.226-3.961 0.643l0.088-0.026 14.057 12c0.472-0.951 0.764-2.066 0.8-3.245l0-0.012z"></path>
</symbol>
<symbol id="client-4" viewBox="0 0 59 32">
<path d="M13.714 12.286c-1.314 0-2.4 1.029-2.4 2.286 0 1.143 1.086 2.171 2.457 2.171s2.457-0.971 2.457-2.229c0-1.2-1.143-2.229-2.457-2.229zM32 11.6c0-1.714-0.8-3.371-2.114-4.571-1.33-1.171-3.087-1.886-5.011-1.886-0.006 0-0.013 0-0.019 0h0.001c-1.943 0-3.714 0.686-5.086 1.886-1.314 1.2-2.057 2.857-2.057 4.571v9.371s14.286-1.429 14.286-9.371zM6.286 24.114c0 1.143 0.571 2.286 1.486 3.143 0.922 0.816 2.141 1.314 3.477 1.314 0.003 0 0.006 0 0.009 0h-0c1.314 0 2.571-0.457 3.486-1.314 0.888-0.768 1.455-1.886 1.486-3.138l0-0.005v-6.571s-9.943 0.971-9.943 6.571zM11.257 25.257c-0.286 0-0.514-0.057-0.743-0.171l-0.457-0.571c-0.114-0.171-0.114-0.4-0.057-0.629 0-0.229 0.171-0.457 0.343-0.629s0.4-0.286 0.686-0.343c0.229 0 0.514 0 0.743 0.114 0.229 0.057 0.4 0.229 0.571 0.4 0.124 0.18 0.199 0.403 0.199 0.644 0 0.333-0.142 0.632-0.369 0.841l-0.001 0.001-0.4 0.286-0.514 0.057zM20.343 23.143v2.457h-0.514v-2.457h0.571zM21.314 24.171v0.4h-1.143v-0.4h1.143zM21.429 23.143v0.4h-1.2v-0.4h1.2zM23.714 24.286v0.171l-0.057 0.457c0 0.171-0.114 0.286-0.229 0.4-0.057 0.114-0.171 0.171-0.343 0.229l-0.4 0.057-0.4-0.057-0.343-0.229c-0.099-0.112-0.177-0.245-0.226-0.392l-0.002-0.008-0.057-0.457v-0.171l0.057-0.457 0.229-0.4 0.343-0.229 0.4-0.057 0.4 0.057c0.171 0.057 0.286 0.114 0.343 0.229l0.229 0.4 0.057 0.457zM23.2 24.457v-0.514l-0.114-0.229c-0.084-0.106-0.214-0.173-0.358-0.173-0.015 0-0.029 0.001-0.043 0.002l0.002-0h-0.229l-0.171 0.171-0.114 0.229v0.8l0.114 0.286 0.171 0.171h0.457l0.171-0.171 0.114-0.286v-0.286zM25.371 24.971v-0.114l-0.229-0.229-0.286-0.057-0.286-0.114-0.286-0.171-0.171-0.229c-0.012-0.043-0.018-0.092-0.018-0.143s0.007-0.1 0.019-0.147l-0.001 0.004v-0.229l0.229-0.229 0.286-0.171c0.093-0.024 0.201-0.037 0.311-0.037 0.176 0 0.344 0.035 0.498 0.098l-0.009-0.003 0.343 0.286 0.114 0.4h-0.571v-0.229l-0.114-0.114h-0.229c-0.034-0.007-0.074-0.012-0.114-0.012s-0.080 0.004-0.118 0.012l0.004-0.001-0.114 0.114-0.057 0.114v0.114l0.114 0.114 0.171 0.057 0.171 0.114 0.4 0.114 0.229 0.171c0.14 0.116 0.229 0.29 0.229 0.485 0 0.010-0 0.020-0.001 0.030l0-0.001-0.057 0.286-0.229 0.171-0.286 0.171c-0.092 0.022-0.197 0.035-0.306 0.035-0.268 0-0.517-0.077-0.729-0.209l0.006 0.003-0.229-0.229-0.057-0.4h0.514v0.229l0.114 0.114 0.171 0.057h0.4c0.093-0.040 0.159-0.125 0.171-0.227l0-0.001zM27.314 23.143v2.457h-0.571v-2.457h0.571zM28.057 23.143v0.4h-2v-0.4h2zM29.943 25.2v0.4h-1.257v-0.457h1.257zM28.8 23.143v2.457h-0.457v-2.457h0.514zM29.771 24.171v0.343h-1.143v-0.343h1.143zM29.943 23.143v0.4h-1.257v-0.4h1.257zM30.286 23.143h0.857c0.229 0 0.343 0 0.514 0.114 0.114 0 0.229 0.114 0.286 0.229 0.114 0.114 0.114 0.229 0.114 0.4l-0.057 0.343c0 0.114-0.114 0.171-0.171 0.229l-0.286 0.171-0.171 0.057h-0.8v-0.4h0.857l0.171-0.171v-0.4l-0.171-0.114-0.229-0.057h-0.4v2.057h-0.514v-2.457zM31.6 25.6l-0.571-1.143h0.571l0.571 1.143h-0.571zM34.286 24.743h-0.629v-0.4h0.571l0.286-0.057 0.114-0.114v-0.4l-0.114-0.171c-0.064-0.036-0.14-0.057-0.221-0.057-0.003 0-0.005 0-0.008 0h-0.457v2.057h-0.571v-2.457h1.029c0.171 0 0.343 0 0.457 0.114 0.271 0.115 0.457 0.379 0.457 0.686v0l-0.114 0.4c-0.114 0.114-0.171 0.229-0.343 0.286-0.133 0.066-0.29 0.108-0.455 0.114l-0.002 0zM37.143 25.2v0.4h-1.314v-0.457h1.314zM36 23.143v2.457h-0.457v-2.457h0.457zM36.971 24.171v0.343h-1.143v-0.343h1.143zM37.143 23.143v0.4h-1.314v-0.4h1.314zM38.571 23.143v2.457h-0.514v-2.457h0.514zM39.314 23.143v0.4h-2v-0.4h2zM41.257 25.2v0.4h-1.314v-0.457h1.314zM40.114 23.143v2.457h-0.514v-2.457h0.514zM41.086 24.171v0.343h-1.143v-0.343h1.143zM41.257 23.143v0.4h-1.314v-0.4h1.314zM41.543 23.143h0.914c0.171 0 0.343 0 0.457 0.114 0.171 0 0.229 0.114 0.343 0.229l0.114 0.4c0 0.114 0 0.229-0.114 0.343 0 0.114-0.057 0.171-0.171 0.229l-0.286 0.171-0.171 0.057h-0.743v-0.4h0.8l0.114-0.171v-0.4l-0.114-0.114-0.229-0.057h-0.4v2.057h-0.571v-2.457zM42.914 25.6l-0.571-1.143h0.571l0.571 1.143h-0.571zM45.029 24.971v-0.114l-0.114-0.114-0.171-0.114-0.229-0.057-0.286-0.114-0.286-0.171-0.171-0.229c-0.037-0.073-0.058-0.16-0.058-0.251 0-0.012 0-0.024 0.001-0.036l-0 0.002 0.057-0.229c0-0.114 0.114-0.171 0.171-0.229l0.286-0.171c0.104-0.029 0.223-0.046 0.346-0.046 0.185 0 0.36 0.038 0.52 0.107l-0.009-0.003 0.286 0.286c0.114 0.114 0.114 0.229 0.114 0.4h-0.457l-0.057-0.229-0.171-0.114h-0.229c-0.026-0.004-0.055-0.006-0.086-0.006s-0.060 0.002-0.089 0.007l0.003-0-0.171 0.114v0.229l0.114 0.114 0.343 0.171 0.343 0.114 0.286 0.171c0.109 0.113 0.176 0.267 0.176 0.436 0 0.027-0.002 0.054-0.005 0.081l0-0.003v0.286l-0.229 0.171-0.286 0.171c-0.092 0.022-0.197 0.035-0.306 0.035-0.268 0-0.517-0.077-0.729-0.209l0.006 0.003-0.229-0.229-0.057-0.4h0.457l0.057 0.229 0.114 0.114 0.114 0.057h0.457c0.093-0.040 0.159-0.125 0.171-0.227l0-0.001z"></path>
</symbol>
<symbol id="client-5" viewBox="0 0 59 32">
<path d="M15.314 25.371c0.114 0.114 0.229 0.343 0.229 0.571 0 0.114 0 0.229-0.114 0.343 0 0.114-0.114 0.229-0.229 0.343-0.286 0.171-0.571 0.229-0.971 0.229h-1.657v-3.429h1.657c0.286 0 0.571 0 0.914 0.229l0.229 0.286 0.057 0.343c0 0.229 0 0.4-0.171 0.571-0.114 0.114-0.343 0.229-0.514 0.229 0.229 0.057 0.4 0.171 0.571 0.343zM13.371 24.8h0.686c0.171 0 0.286 0 0.457-0.114l0.114-0.114v-0.4l-0.114-0.171-0.457-0.114h-0.686v0.914zM14.514 26.171c0.114 0 0.171-0.114 0.171-0.171v-0.4l-0.114-0.171-0.514-0.114h-0.686v0.971h0.743c0.171 0 0.286 0 0.457-0.114zM18.629 26.857l-0.857-1.371h-0.343v1.371h-0.857v-3.429h1.486c0.343 0 0.743 0.057 1.029 0.286 0.229 0.171 0.343 0.457 0.343 0.686 0 0.286-0.057 0.571-0.229 0.743-0.171 0.229-0.457 0.343-0.743 0.4l0.971 1.371h-0.857zM17.429 25.029h0.571c0.514 0 0.686-0.171 0.686-0.571v-0.171c-0.029-0.066-0.067-0.123-0.114-0.172l0 0c-0.171-0.114-0.343-0.171-0.571-0.171h-0.571v1.086zM22.914 26.171h-1.543l-0.229 0.686h-0.8l1.429-3.429h0.914l1.429 3.429h-0.857l-0.286-0.686zM22.743 25.6l-0.571-1.429-0.571 1.429h1.143zM28.286 26.857h-0.743l-1.714-2.4v2.4h-0.8v-3.429h0.686l1.714 2.4v-2.4h0.8v3.429zM32.743 26c-0.171 0.286-0.4 0.514-0.686 0.629-0.343 0.171-0.743 0.229-1.143 0.229h-1.371v-3.429h1.371c0.4 0 0.8 0 1.143 0.229 0.286 0.114 0.571 0.343 0.686 0.571 0.149 0.264 0.236 0.579 0.236 0.914s-0.088 0.651-0.241 0.924l0.005-0.009zM31.829 25.943c0.222-0.218 0.36-0.521 0.36-0.857s-0.138-0.639-0.36-0.857l-0-0c-0.229-0.171-0.571-0.286-0.971-0.286h-0.571v2.286h0.571c0.4 0 0.743-0.057 0.971-0.286zM23.429 3.886s10.057 3.429 9.829 8.343v8.343s-10.057-3.429-9.829-8.343v-8.343zM42.171 18.629c1.943-1.143 4.114-1.943 6.4-2.114v-2.629c-2.642 0.901-4.831 2.555-6.374 4.704l-0.026 0.038z"></path>
<path d="M41.029 19.429c1.6-2.857 4.286-5.029 7.543-6.114v-7.486s-14.286 4.857-14 11.886v11.886l1.657-0.629v-1.143c0.355-3.479 2.149-6.479 4.768-8.435l0.032-0.023z"></path>
<path d="M39.714 23.829c0.057-0.857 0.229-1.657 0.457-2.457-1.799 1.875-2.935 4.396-3.028 7.182l-0 0.018 2.8-1.314c-0.286-1.143-0.343-2.286-0.229-3.429zM40.286 23.886c-0.114 1.029-0.057 2.057 0.171 3.086 3.886-2.114 8.286-5.371 8.114-9.257v-0.343c-2.8 0.286-5.429 1.371-7.429 3.086-0.457 1.143-0.8 2.286-0.857 3.429z"></path>
</symbol>
<symbol id="client-6" viewBox="0 0 59 32">
<path d="M30.571 15.657c-0.216-0.284-0.346-0.643-0.346-1.033 0-0.039 0.001-0.077 0.004-0.115l-0 0.005v-1.6c0-0.571 0.114-0.914 0.343-1.143 0.229-0.286 0.629-0.4 1.2-0.4s0.914 0.114 1.143 0.286c0.229 0.286 0.343 0.686 0.286 1.029v0.4h-0.914v-0.8c0-0.114-0.114-0.171-0.171-0.229-0.094-0.071-0.214-0.114-0.343-0.114v0c-0.129 0-0.249 0.043-0.344 0.115l0.001-0.001c-0.114 0.057-0.171 0.171-0.171 0.229v2.457c0 0.171 0 0.343 0.114 0.571l0.171 0.114h0.229l0.343-0.057 0.114-0.229v-0.857h0.971v0.4c0 0.343-0.057 0.743-0.286 1.029-0.229 0.229-0.571 0.343-1.143 0.343s-0.971-0.114-1.143-0.4zM34.514 15.714c-0.229-0.286-0.343-0.629-0.343-1.143v-1.714c0-0.514 0.114-0.857 0.343-1.143 0.229-0.229 0.571-0.343 1.143-0.343s0.971 0.114 1.2 0.343c0.229 0.286 0.4 0.629 0.4 1.143v1.714c0 0.514-0.171 0.857-0.4 1.143-0.229 0.229-0.571 0.343-1.143 0.343s-0.971-0.114-1.2-0.343zM36.114 15.257c0.114-0.114 0.114-0.286 0.114-0.514v-2.114c0-0.171 0-0.343-0.114-0.514l-0.114-0.114c-0.034-0.007-0.074-0.012-0.114-0.012s-0.080 0.004-0.118 0.012l0.004-0.001c-0.043-0.012-0.092-0.018-0.143-0.018s-0.1 0.007-0.147 0.019l0.004-0.001-0.171 0.114c-0.114 0.171-0.114 0.343-0.114 0.571v2.114c0 0.171 0 0.343 0.114 0.514l0.171 0.114c0.073 0.029 0.157 0.046 0.246 0.046 0.168 0 0.322-0.060 0.441-0.161l-0.001 0.001zM38.343 11.429h1.086l0.743 3.2 0.8-3.257h0.971l0.114 4.629h-0.743l-0.057-3.2-0.743 3.2h-0.571l-0.8-3.2-0.057 3.2h-0.8l0.057-4.571zM43.143 11.429h1.543c0.914 0 1.371 0.4 1.371 1.257s-0.457 1.257-1.429 1.257h-0.571v2.057h-0.914v-4.571zM44.457 13.371h0.286c0.114 0 0.171-0.114 0.286-0.171 0.114-0.114 0.171-0.286 0.114-0.514v-0.4l-0.229-0.229-0.457-0.057h-0.343v1.371h0.343zM47.429 11.429h1.143l1.029 4.571h-0.914l-0.229-1.029h-0.914l-0.229 1.029h-0.914l1.086-4.571zM48.343 14.4l-0.343-1.943-0.343 1.943h0.686zM50.457 11.429h0.686l1.314 2.629v-2.686h0.8v4.629h-0.686l-1.314-2.743v2.743h-0.857v-4.571zM55.143 14.286l-1.086-2.857h0.914l0.686 1.829 0.571-1.829h0.914l-1.086 2.857v1.714h-0.914v-1.714zM32.114 18.057v0.229h-0.8v1.886h-0.343v-1.886h-0.8v-0.229h1.943zM34.571 20.171h-0.286v-0.057l-0.229-0.571h-1.143l-0.229 0.571-0.114 0.057h-0.229l0.971-2.114h0.343l0.971 2.114zM32.971 19.371h0.914l-0.4-0.857-0.057-0.229v0.114l-0.057 0.114-0.4 0.857zM36.229 20h0.229c0.108-0.028 0.203-0.067 0.291-0.117l-0.006 0.003h0.114v-0.571h-0.4v-0.171h0.686v0.8c-0.179 0.118-0.392 0.199-0.621 0.228l-0.007 0.001h-0.286l-0.514-0.057c-0.155-0.051-0.288-0.13-0.401-0.23l0.001 0.001-0.229-0.343c-0.057-0.114-0.114-0.286-0.057-0.457l0.057-0.4 0.229-0.343 0.4-0.229c0.154-0.052 0.331-0.082 0.515-0.082 0.101 0 0.2 0.009 0.295 0.026l-0.010-0.002c0.168 0.012 0.323 0.053 0.466 0.118l-0.009-0.003 0.171 0.114-0.114 0.171h-0.229l-0.114-0.114c-0.112-0.038-0.241-0.060-0.375-0.060-0.029 0-0.058 0.001-0.086 0.003l0.004-0c-0.052-0.008-0.111-0.013-0.171-0.013s-0.12 0.005-0.178 0.014l0.006-0.001-0.286 0.229-0.229 0.229v0.743l0.229 0.286c0.143 0.111 0.325 0.178 0.523 0.178 0.037 0 0.074-0.002 0.11-0.007l-0.004 0zM39.371 19.943h1.029v0.229h-1.371v-2.114h0.343v1.886zM41.543 20.171h-0.4v-2.114h0.343v2.114zM42.743 18.057h0.057l1.429 1.657v-1.657h0.286v2.114h-0.229v-0.057l-1.486-1.6v1.657h-0.286v-2.114h0.229zM46.971 18.057v0.229h-1.143v0.686h0.914v0.229h-0.971v0.743h1.2v0.229h-1.543v-2.114h1.543zM12.114 4.971l14.743 3.6v12.686l-14.743-3.6v-12.686zM11.143 3.829v14.457l16.686 4.114v-14.457l-16.686-4.057z"></path>
<path d="M20.114 29.029l-16.686-4.114v-14.4l16.686 4.114v14.4z"></path>
<path d="M11.429 4.8l14.571 3.543-6.171 5.371-14.571-3.6 6.171-5.314zM11.143 3.886l-7.714 6.629 16.686 4.114 7.714-6.686-16.686-4.057zM21.029 28.229l6.8-5.943-6.8-1.714v7.6z"></path>
</symbol>


<symbol id="diagram" width="64" height="64" viewBox="0 0 32 32">
  <path fill="#4d5ae5" style="fill: var(--color2, #4d5ae5)" d="M14.925 14.965h1.065v4.8h-1.065v-4.8zM19.19 17.1h1.065v2.66h-1.065v-2.66zM10.66 18.7h1.065v1.060h-1.065v-1.060zM7.465 18.165h1.065v1.6h-1.065v-1.6z"></path>
  <path fill="#2e2f42" style="fill: var(--color3, #2e2f42)" d="M1.6 28.29h25.585c0.884 0 1.6-0.716 1.6-1.6v0-2.13c0-0.884-0.716-1.6-1.6-1.6v0h-0.53v-13.295l3.025-2.865c0.207 0.104 0.451 0.165 0.709 0.165 0.889 0 1.61-0.721 1.61-1.61s-0.721-1.61-1.61-1.61c-0.889 0-1.61 0.721-1.61 1.61 0 0.247 0.056 0.481 0.155 0.69l-0.004-0.010-2.275 2.165v-1.23c0-0.884-0.716-1.6-1.6-1.6v0h-21.325c-0.884 0-1.6 0.716-1.6 1.6v0 15.99h-0.53c-0.884 0-1.6 0.716-1.6 1.6v0 2.13c0 0.884 0.716 1.6 1.6 1.6v0zM30.385 4.84c0.015-0.002 0.033-0.003 0.052-0.003 0.295 0 0.535 0.24 0.535 0.535s-0.24 0.535-0.535 0.535c-0.018 0-0.036-0.001-0.054-0.003l0.002 0c-0.295 0-0.535-0.24-0.535-0.535s0.24-0.535 0.535-0.535v0zM3.2 6.965c0-0.3 0.235-0.535 0.53-0.535h21.325c0.295 0 0.53 0.24 0.53 0.535v2.235l-1.065 1.015v-2.185c0-0.295-0.24-0.535-0.535-0.535h-19.185c-0.29 0-0.53 0.24-0.53 0.535v13.325c0 0.3 0.24 0.535 0.53 0.535h19.19c0.3 0 0.535-0.24 0.535-0.535v-9.67l1.065-1.010v12.285h-22.39v-15.99zM8 13.9c-0.004-0-0.008-0-0.012-0-0.884 0-1.6 0.716-1.6 1.6s0.716 1.6 1.6 1.6c0.432 0 0.825-0.172 1.113-0.45l-0 0 1.855 0.925c0.215 0.11 0.475 0.060 0.635-0.12l3.94-4.43 3.875 2.9c0.205 0.15 0.5 0.14 0.685-0.040l3.365-3.19v8.135h-18.125v-12.26h18.125v2.66l-3.77 3.57-3.905-2.925c-0.088-0.067-0.2-0.108-0.322-0.108-0.158 0-0.3 0.068-0.398 0.177l-0 0-3.995 4.495-1.49-0.75 0.020-0.19c0-0.884-0.716-1.6-1.6-1.6v0zM8.53 15.5c0.002 0.015 0.002 0.033 0.002 0.052 0 0.295-0.24 0.535-0.535 0.535s-0.535-0.24-0.535-0.535c0-0.018 0.001-0.036 0.003-0.054l-0 0.002c0.027-0.272 0.255-0.483 0.532-0.483s0.505 0.211 0.532 0.481l0 0.002zM11.73 24.025h5.33v0.535c0 0.295-0.24 0.535-0.535 0.535h-4.265c-0.295 0-0.535-0.24-0.535-0.535v-0.535zM1.060 24.56c0-0.295 0.24-0.535 0.535-0.535h9.060v0.535c0 0.884 0.716 1.6 1.6 1.6h4.265c0.884 0 1.6-0.716 1.6-1.6v0-0.535h9.060c0.295 0 0.535 0.24 0.535 0.535v2.13c0 0.3-0.24 0.535-0.535 0.535h-25.58c-0.295 0-0.535-0.24-0.535-0.535v-2.13z"></path>
</symbol>

<symbol id="clock" width="64" height="64" viewBox="0 0 32 32">
  <path fill="#2e2f42" style="fill: var(--color3, #2e2f42)" d="M31.3 15.3c-0.008-8.444-6.855-15.286-15.3-15.286-8.45 0-15.3 6.85-15.3 15.3 0 6.783 4.414 12.535 10.527 14.541l0.108 0.031c0.057 0.017 0.122 0.027 0.19 0.027 0.125 0 0.243-0.034 0.344-0.094l-0.003 0.002c0.135-0.080 0.235-0.21 0.285-0.36l3.865-12.25c0.004 0 0.008 0 0.012 0 1.058 0 1.915-0.857 1.915-1.915s-0.857-1.915-1.915-1.915c-0.31 0-0.604 0.074-0.863 0.205l0.011-0.005-5.105-5.11c-0.109-0.088-0.249-0.142-0.402-0.142-0.353 0-0.64 0.287-0.64 0.64 0 0.153 0.054 0.293 0.143 0.403l-0.001-0.001 5.1 5.11c-0.121 0.241-0.192 0.526-0.192 0.827 0 0.601 0.283 1.137 0.723 1.48l0.004 0.003-3.68 11.675c-5.411-2.034-9.191-7.165-9.191-13.179 0-7.757 6.288-14.045 14.045-14.045s14.045 6.288 14.045 14.045c0 5.687-3.38 10.585-8.241 12.794l-0.088 0.036-0.4-1.875c-0.060-0.293-0.316-0.51-0.623-0.51-0.165 0-0.315 0.063-0.428 0.166l0-0-3.835 3.425c-0.134 0.117-0.217 0.288-0.217 0.478 0 0.284 0.186 0.524 0.443 0.605l0.005 0.001 4.9 1.565c0.060 0.020 0.128 0.032 0.2 0.032 0.351 0 0.635-0.284 0.635-0.635 0-0.049-0.005-0.096-0.016-0.142l0.001 0.004-0.39-1.84c5.526-2.374 9.325-7.769 9.325-14.052 0-0.013-0-0.027-0-0.040v0.002zM15.99 14.665c0.017-0.002 0.037-0.002 0.057-0.002 0.353 0 0.64 0.287 0.64 0.64s-0.287 0.64-0.64 0.64c-0.020 0-0.040-0.001-0.059-0.003l0.002 0c-0.328-0.030-0.584-0.304-0.584-0.637s0.255-0.608 0.581-0.637l0.002-0zM18.090 29.53l2.185-1.95 0.6 2.84-2.78-0.89z"></path>
  <path fill="#4d5ae5" style="fill: var(--color2, #4d5ae5)" d="M15.35 3.185v1.275c0 0.353 0.287 0.64 0.64 0.64s0.64-0.287 0.64-0.64v-1.275c-0.030-0.328-0.304-0.583-0.637-0.583s-0.608 0.255-0.637 0.581l-0 0.002zM3.875 14.665c-0.328 0.030-0.583 0.304-0.583 0.637s0.255 0.608 0.581 0.637l0.002 0h1.275c0.017 0.002 0.037 0.002 0.056 0.002 0.353 0 0.64-0.287 0.64-0.64s-0.287-0.64-0.64-0.64c-0.020 0-0.040 0.001-0.059 0.003l0.003-0h-1.275zM28.11 15.94c0.017 0.002 0.037 0.002 0.056 0.002 0.353 0 0.64-0.287 0.64-0.64s-0.287-0.64-0.64-0.64c-0.020 0-0.040 0.001-0.059 0.003l0.003-0h-1.275c-0.328 0.030-0.584 0.304-0.584 0.637s0.255 0.608 0.581 0.637l0.003 0h1.275z"></path>
</symbol>

<symbol id="astronaut" width="64" height="64" viewBox="0 0 32 32">
  <path fill="#4d5ae5" style="fill: var(--color2, #4d5ae5)" d="M31.975 4.525c-0.063-0.192-0.227-0.334-0.427-0.365l-0.003-0-1.91-0.275-0.855-1.735c-0.18-0.365-0.78-0.365-0.96 0l-0.85 1.735-1.915 0.275c-0.259 0.040-0.454 0.262-0.454 0.529 0 0.149 0.061 0.284 0.159 0.381l0 0 1.385 1.35-0.33 1.9c-0.005 0.027-0.008 0.059-0.008 0.091 0 0.295 0.24 0.535 0.535 0.535 0.091 0 0.176-0.023 0.251-0.062l-0.003 0.001 1.71-0.9 1.71 0.9c0.072 0.038 0.157 0.061 0.248 0.061 0.295 0 0.535-0.24 0.535-0.535 0-0.032-0.003-0.064-0.008-0.094l0 0.003-0.33-1.9 1.385-1.35c0.145-0.14 0.2-0.35 0.135-0.55zM29.51 5.85c-0.125 0.125-0.18 0.3-0.15 0.475l0.19 1.11-1-0.525c-0.072-0.039-0.158-0.063-0.25-0.063s-0.178 0.023-0.253 0.064l0.003-0.001-1 0.525 0.19-1.11c0.030-0.175-0.025-0.35-0.15-0.475l-0.81-0.79 1.115-0.16c0.175-0.025 0.325-0.135 0.4-0.295l0.5-1.010 0.5 1.010c0.080 0.16 0.23 0.27 0.405 0.295l1.12 0.16-0.81 0.79zM26.135 20.52h-1.070v1.070h1.070v-1.070zM26.135 22.655h-1.070v1.065h1.070v-1.065zM27.2 21.59h-1.065v1.065h1.065v-1.065zM25.065 21.59h-1.065v1.065h1.065v-1.065zM22.4 26.39h-1.065v1.065h1.065v-1.065zM22.4 28.52h-1.065v1.070h1.065v-1.070zM23.465 27.455h-1.065v1.065h1.065v-1.065z"></path>
  <path fill="#4d5ae5" style="fill: var(--color2, #4d5ae5)" d="M21.335 27.455h-1.070v1.065h1.070v-1.065zM16 24.255h-1.065v1.065h1.065v-1.065zM16 26.39h-1.065v1.065h1.065v-1.065zM17.065 25.32h-1.065v1.070h1.065v-1.070zM14.935 25.32h-1.070v1.070h1.070v-1.070zM5.865 6.12h-1.065v1.070h1.065v-1.070zM5.865 8.255h-1.065v1.065h1.065v-1.065zM6.935 7.19h-1.070v1.065h1.070v-1.065zM4.8 7.19h-1.065v1.065h1.065v-1.065z"></path>
  <path fill="#2e2f42" style="fill: var(--color3, #2e2f42)" d="M24.715 14.16c-0.28-0.377-0.7-0.637-1.181-0.704l-0.009-0.001c-0.077-0.012-0.166-0.019-0.257-0.019-0.41 0-0.787 0.139-1.087 0.372l0.004-0.003-1.25 0.96-1.9 1.42-1.355-0.54c2.44-1.106 4.108-3.517 4.115-6.319v-0.001c0-3.825-3.125-6.935-6.965-6.935-0.002 0-0.003 0-0.005 0-3.834 0-6.944 3.102-6.955 6.934v0.001c0 1.385 0.415 2.67 1.12 3.755l-2.765-0.025-0.025 0.005c-0.050 0-0.105 0.015-0.155 0.035l-0.040 0.010c-0.005 0-0.015 0-0.020 0.010l-3.235 1.595-1.89 0.91c-0.538 0.313-0.894 0.888-0.894 1.545 0 0.984 0.798 1.782 1.782 1.782 0.327 0 0.633-0.088 0.896-0.241l-0.008 0.005 1.385-0.735 2.265-1.17 1.355-0.010-6.785 6.755c-0.307 0.3-0.497 0.718-0.497 1.18s0.19 0.88 0.496 1.18l0 0c0.301 0.301 0.718 0.488 1.177 0.488s0.876-0.186 1.177-0.488v0l1.315-1.31 1.74-1.3 0.9 0.9-3.1 3.085c-0.305 0.3-0.494 0.716-0.494 1.177s0.189 0.878 0.494 1.177l0 0c0.302 0.302 0.719 0.488 1.18 0.488s0.878-0.187 1.18-0.488l-0 0 1.34-1.33 2.145-2.135 1.010-1-0.005-0.005 0.020-0.015 5.17-5.66 3.47 0.495c0.020 0.003 0.042 0.004 0.065 0.004 0.070 0 0.137-0.014 0.198-0.040l-0.003 0.001 0.050-0.020 0.060-0.030 3.21-2.135c0.015-0.005 0.020-0.020 0.030-0.025 0.015-0.010 0.030-0.015 0.040-0.030l1.275-1.19c0.346-0.326 0.562-0.786 0.562-1.298 0-0.4-0.132-0.77-0.355-1.067l0.003 0.005zM2.13 17.77c-0.175 0.095-0.37 0.11-0.56 0.050-0.294-0.093-0.503-0.364-0.503-0.683 0-0.236 0.115-0.446 0.291-0.576l0.002-0.001 1.315-0.63 0.315 0.925 0.13 0.39-0.99 0.525zM5.63 15.94l-1.55 0.8-0.255-0.74-0.185-0.535 2.025-1-0.035 1.48zM20.73 9.32c0 0.92-0.22 1.785-0.6 2.56l-4.185-1.9c-0.043-0.574-0.341-1.070-0.779-1.381l-0.006-0.004 1.46-4.86c2.393 0.775 4.096 2.98 4.105 5.584v0.001zM8.94 9.32c0.015-3.241 2.646-5.863 5.89-5.863 0.264 0 0.525 0.017 0.78 0.051l-0.030-0.003-1.435 4.755h-0.055c-0.002 0-0.003 0-0.005 0-1.029 0-1.864 0.832-1.87 1.859v0.001c0.005 1.029 0.84 1.861 1.87 1.861 0.689 0 1.291-0.373 1.615-0.927l0.005-0.009 3.865 1.75c-1.085 1.459-2.803 2.394-4.74 2.394-3.245 0-5.878-2.625-5.89-5.868v-0.001zM14.89 10.12c0 0.445-0.36 0.805-0.805 0.805s-0.805-0.36-0.805-0.805v0c0-0.44 0.365-0.8 0.81-0.8s0.8 0.36 0.8 0.8zM2.47 25.15c-0.235 0.235-0.62 0.235-0.85 0-0.107-0.108-0.174-0.256-0.174-0.42s0.066-0.312 0.174-0.42l0.96-0.96 0.85 0.85-0.96 0.95zM5.685 28.885c-0.24 0.235-0.62 0.235-0.855 0-0.109-0.108-0.176-0.257-0.176-0.422s0.067-0.315 0.176-0.422l0.96-0.96 0.85 0.85-0.955 0.95zM9.165 25.415l-1.765 1.76-0.85-0.85 1.76-1.75c0.040-0.040 0.065-0.090 0.090-0.14l0.030-0.040c0.015-0.040 0.015-0.085 0.025-0.125l0.010-0.075c0-0.035-0.010-0.070-0.020-0.1 0-0.035 0-0.070-0.015-0.1-0.020-0.050-0.055-0.095-0.095-0.14-0.010-0.010-0.010-0.025-0.025-0.035l-1.605-1.6c-0.020-0.020-0.040-0.025-0.060-0.040-0.025-0.022-0.053-0.042-0.082-0.059l-0.003-0.001c-0.027-0.012-0.059-0.022-0.092-0.029l-0.003-0.001c-0.029-0.009-0.063-0.016-0.098-0.020l-0.002-0h-0.1l-0.1 0.025c-0.038 0.012-0.071 0.028-0.102 0.046l0.002-0.001c-0.015 0.010-0.040 0.015-0.055 0.030l-1.775 1.32-0.9-0.9 2.4-2.38 4.36 4.285-0.93 0.92zM15.98 18.4h-0.050c-0.009-0.001-0.019-0.001-0.030-0.001-0.1 0-0.193 0.028-0.273 0.077l0.002-0.001-0.080 0.065-0.040 0.030-4.7 5.145-4.325-4.26 2.835-2.815c0.095-0.096 0.153-0.229 0.153-0.375 0-0.295-0.239-0.534-0.533-0.535h-0l-2.22 0.010 0.025-1.605 3.105 0.025c1.264 1.296 3.027 2.099 4.977 2.099 0.454 0 0.897-0.043 1.326-0.126l-0.044 0.007c0.040 0.030 0.080 0.060 0.13 0.085l2.41 0.96 0.15 0.755 0.18 0.885-3-0.425zM20.020 18.575l-0.315-1.555 1.45-1.080 0.375 0.5 0.57 0.755-2.080 1.38zM23.77 15.745l-0.835 0.785-0.93-1.235 0.83-0.635c0.123-0.1 0.281-0.161 0.454-0.161 0.398 0 0.72 0.322 0.72 0.72 0 0.21-0.090 0.399-0.233 0.53l-0.001 0z"></path>
  <path fill="#2e2f42" style="fill: var(--color3, #2e2f42)" d="M13.6 18.545l-2.14-2.135c-0.096-0.095-0.229-0.153-0.375-0.153s-0.279 0.059-0.375 0.154l0-0-2.15 2.135c-0.096 0.097-0.156 0.23-0.156 0.378s0.060 0.281 0.156 0.378l-0-0 2.15 2.135c0.096 0.095 0.229 0.153 0.375 0.153s0.279-0.059 0.375-0.154l-0 0 2.14-2.135c0.096-0.097 0.156-0.23 0.156-0.378s-0.060-0.281-0.156-0.378l0 0zM11.085 20.305l-1.39-1.385 1.39-1.38 1.385 1.38-1.385 1.385zM17.165 5.070l-0.26 1.035c0.075 0.020 1.74 0.45 1.74 2.15h1.065c0-2.015-1.665-2.965-2.55-3.185zM19.71 9.32h-1.060v1.070h1.065v-1.070z"></path>
</symbol>

<symbol id="antenna" width="64" height="64" viewBox="0 0 32 32">
  <path fill="#2e2f42" style="fill: var(--color3, #2e2f42)" d="M30.775 22.1l-8.445-8.505 0.935-4.62c0.245 0.1 0.5 0.15 0.76 0.15h0.005c0.009 0 0.020 0 0.032 0 1.193 0 2.16-0.967 2.16-2.16s-0.967-2.16-2.16-2.16c-1.193 0-2.16 0.967-2.16 2.16 0 0.258 0.045 0.505 0.128 0.735l-0.005-0.015-4.96 0.61-8.090-8.135c-0.097-0.096-0.23-0.156-0.378-0.156-0.145 0-0.276 0.058-0.373 0.151l0-0-1.515 1.5c-0.21 0.21-0.21 0.55 0 0.76l0.815 0.825c-1.142 2.062-1.815 4.521-1.815 7.137 0 4.105 1.656 7.824 4.336 10.524l-0.001-0.001c0.040 0.045 0.090 0.075 0.145 0.1-0.035 0.18-0.050 0.365-0.050 0.55v6.185h-6.405c0 0 0 0 0 0-1.473 0-2.667 1.193-2.67 2.665v1.065c0 0.3 0.24 0.535 0.535 0.535h24.53c0.3 0 0.535-0.24 0.535-0.535v-1.065c-0.003-1.471-1.194-2.662-2.665-2.665h-6.4v-2.745c0.914 0.2 1.964 0.315 3.041 0.315 2.582 0 5.011-0.659 7.126-1.818l-0.077 0.039 0.815 0.825c0.1 0.1 0.235 0.16 0.375 0.16s0.275-0.055 0.375-0.15l1.515-1.51c0.205-0.205 0.205-0.545 0-0.75zM23.28 6.235c0.193-0.192 0.458-0.31 0.751-0.31 0.588 0 1.065 0.477 1.065 1.065s-0.477 1.065-1.065 1.065c-0 0-0.001 0-0.001 0h0c-0.588-0.001-1.064-0.477-1.064-1.065 0-0.295 0.12-0.562 0.314-0.755l0-0zM22.025 9.735l-0.6 2.95-1.175-1.185 1.775-1.76zM21.42 8.835l-1.92 1.915-1.485-1.495 3.4-0.415zM24 28.8c0.884 0 1.6 0.716 1.6 1.6v0 0.535h-23.465v-0.535c0-0.884 0.716-1.6 1.6-1.6h20.27zM16.53 26.665v1.070h-5.325v-1.070h5.33zM11.205 25.6v-4.050c0-1.3 1.2-2.35 2.665-2.35 1.47 0 2.665 1.050 2.665 2.35v4.050h-5.33zM17.605 23.9v-2.35c0-1.885-1.675-3.415-3.735-3.415-0.017-0-0.038-0-0.058-0-1.352 0-2.539 0.706-3.213 1.77l-0.009 0.016c-2.361-2.482-3.813-5.847-3.813-9.552 0-2.314 0.567-4.497 1.569-6.415l-0.036 0.077 18.6 18.71c-1.823 0.947-3.98 1.503-6.268 1.503-1.077 0-2.125-0.123-3.131-0.356l0.093 0.018zM28.895 23.22l-21.060-21.18 0.755-0.75 21.060 21.18-0.755 0.75z"></path>
  <path fill="#4d5ae5" style="fill: var(--color2, #4d5ae5)" d="M13.875 20.265c-0.002 0-0.003 0-0.005 0-0.884 0-1.6 0.716-1.6 1.6 0 0.882 0.713 1.597 1.595 1.6h0.005c0.001 0 0.002 0 0.002 0 0.884 0 1.6-0.716 1.6-1.6s-0.715-1.599-1.597-1.6h-0zM14.25 22.245c-0.097 0.099-0.232 0.16-0.382 0.16-0.295 0-0.535-0.24-0.535-0.535s0.24-0.535 0.535-0.535c0.001 0 0.001 0 0.002 0h-0c0.293 0.004 0.528 0.242 0.528 0.535 0 0.146-0.059 0.279-0.154 0.375l0-0z"></path>
</symbol>

<symbol id="instagram" width="16" height="16" viewBox="0 0 16 16">
  <path d="M15.9843 4.70392C15.9468 3.85378 15.8093 3.26932 15.6124 2.76287C15.4092 2.22529 15.0967 1.74399 14.6872 1.34389C14.2871 0.937561 13.8026 0.621826 13.2713 0.421835C12.7619 0.224897 12.1805 0.0874194 11.3303 0.0499365C10.4738 0.00927917 10.2019 -0.00012207 8.02963 -0.00012207C5.85733 -0.00012207 5.58543 0.00927917 4.73212 0.0467621C3.88197 0.084245 3.29751 0.221845 2.79119 0.418661C2.25348 0.621826 1.77219 0.934387 1.37209 1.34389C0.965758 1.74399 0.650145 2.22846 0.450033 2.75982C0.253096 3.26932 0.115618 3.85061 0.0781347 4.70075C0.0374774 5.55724 0.0280762 5.82914 0.0280762 8.00144C0.0280762 10.1737 0.0374774 10.4456 0.0749603 11.299C0.112443 12.1491 0.250043 12.7336 0.446981 13.24C0.650145 13.7776 0.965758 14.2589 1.37209 14.659C1.77219 15.0653 2.25666 15.3811 2.78801 15.581C3.29751 15.778 3.8788 15.9155 4.72906 15.9529C5.58226 15.9906 5.85428 15.9998 8.02658 15.9998C10.1989 15.9998 10.4708 15.9906 11.3241 15.9529C12.1742 15.9155 12.7587 15.778 13.265 15.581C14.3403 15.1653 15.1904 14.3152 15.6062 13.24C15.803 12.7305 15.9406 12.1491 15.9781 11.299C16.0156 10.4456 16.025 10.1737 16.025 8.00144C16.025 5.82914 16.0218 5.55724 15.9843 4.70392ZM14.5435 11.2364C14.509 12.0179 14.3778 12.4398 14.2684 12.7211C13.9995 13.4181 13.4463 13.9714 12.7493 14.2402C12.468 14.3496 12.043 14.4809 11.2646 14.5152C10.4207 14.5528 10.1676 14.562 8.03281 14.562C5.89799 14.562 5.64172 14.5528 4.80085 14.5152C4.01945 14.4809 3.5975 14.3496 3.31619 14.2402C2.96932 14.112 2.65359 13.9088 2.39731 13.6432C2.13163 13.3837 1.92847 13.0712 1.80027 12.7243C1.69087 12.443 1.55962 12.0179 1.52532 11.2396C1.48771 10.3957 1.47843 10.1425 1.47843 8.00767C1.47843 5.87285 1.48771 5.61658 1.52532 4.77584C1.55962 3.99443 1.69087 3.57248 1.80027 3.29117C1.92847 2.94418 2.13163 2.62857 2.40049 2.37217C2.65981 2.10649 2.97237 1.90333 3.31937 1.77525C3.60067 1.66585 4.0258 1.5346 4.80403 1.50017C5.64794 1.46269 5.90117 1.45329 8.03586 1.45329C10.1738 1.45329 10.4269 1.46269 11.2678 1.50017C12.0492 1.5346 12.4712 1.66585 12.7525 1.77525C13.0993 1.90333 13.4151 2.10649 13.6714 2.37217C13.937 2.63162 14.1402 2.94418 14.2684 3.29117C14.3778 3.57248 14.509 3.99748 14.5435 4.77584C14.581 5.61975 14.5904 5.87285 14.5904 8.00767C14.5904 10.1425 14.581 10.3925 14.5435 11.2364Z"/>
  <path d="M8.02967 3.89124C5.76055 3.89124 3.91949 5.73217 3.91949 8.00141C3.91949 10.2707 5.76055 12.1116 8.02967 12.1116C10.2989 12.1116 12.1398 10.2707 12.1398 8.00141C12.1398 5.73217 10.2989 3.89124 8.02967 3.89124ZM8.02967 10.6676C6.55758 10.6676 5.3635 9.47362 5.3635 8.00141C5.3635 6.5292 6.55758 5.33524 8.02967 5.33524C9.50188 5.33524 10.6958 6.5292 10.6958 8.00141C10.6958 9.47362 9.50188 10.6676 8.02967 10.6676Z"/>
  <path d="M13.262 3.72871C13.262 4.2586 12.8324 4.68825 12.3024 4.68825C11.7725 4.68825 11.3428 4.2586 11.3428 3.72871C11.3428 3.19869 11.7725 2.76917 12.3024 2.76917C12.8324 2.76917 13.262 3.19869 13.262 3.72871Z"/>
</symbol>

<symbol id="twitter"  width="16" height="16"  viewBox="0 0 16 16">
  <path d="M16 3.03888C15.405 3.29988 14.771 3.47288 14.11 3.55688C14.79 3.15088 15.309 2.51288 15.553 1.74388C14.919 2.12188 14.219 2.38888 13.473 2.53788C12.871 1.89688 12.013 1.49988 11.077 1.49988C9.261 1.49988 7.799 2.97388 7.799 4.78088C7.799 5.04088 7.821 5.29088 7.875 5.52888C5.148 5.39588 2.735 4.08888 1.114 2.09788C0.831 2.58888 0.665 3.15088 0.665 3.75588C0.665 4.89188 1.25 5.89888 2.122 6.48188C1.595 6.47188 1.078 6.31888 0.64 6.07788C0.64 6.08788 0.64 6.10088 0.64 6.11388C0.64 7.70788 1.777 9.03188 3.268 9.33688C3.001 9.40988 2.71 9.44488 2.408 9.44488C2.198 9.44488 1.986 9.43288 1.787 9.38888C2.212 10.6879 3.418 11.6429 4.852 11.6739C3.736 12.5469 2.319 13.0729 0.785 13.0729C0.516 13.0729 0.258 13.0609 0 13.0279C1.453 13.9649 3.175 14.4999 5.032 14.4999C11.068 14.4999 14.368 9.49988 14.368 5.16588C14.368 5.02088 14.363 4.88088 14.356 4.74188C15.007 4.27988 15.554 3.70288 16 3.03888Z"/>
</symbol>

<symbol id="facebook"  width="16" height="16"  viewBox="0 0 16 16">
  <path d="M10.6647 2.65654H12.1254V0.112545C11.8734 0.0778779 11.0067 -0.00012207 9.99736 -0.00012207C7.89136 -0.00012207 6.4487 1.32454 6.4487 3.75921V5.99988H4.12469V8.84388H6.4487V15.9999H9.29803V8.84455H11.528L11.882 6.00055H9.29736V4.04121C9.29803 3.21921 9.51936 2.65654 10.6647 2.65654Z"/>
</symbol>

<symbol id="linkedin"  width="16" height="16"  viewBox="0 0 16 16">
  <path d="M15.9961 15.9999V15.9992H16.0001V10.1312C16.0001 7.26053 15.3821 5.04919 12.0261 5.04919C10.4128 5.04919 9.33009 5.93453 8.88809 6.77386H8.84143V5.31719H5.65942V15.9992H8.97276V10.7099C8.97276 9.31719 9.23676 7.97053 10.9614 7.97053C12.6608 7.97053 12.6861 9.55986 12.6861 10.7992V15.9999H15.9961Z"/>
  <path d="M0.264038 5.31787H3.58137V15.9999H0.264038V5.31787Z"/>
  <path d="M1.92139 -0.00012207C0.860728 -0.00012207 6.10352e-05 0.860545 6.10352e-05 1.92121C6.10352e-05 2.98188 0.860728 3.86055 1.92139 3.86055C2.98206 3.86055 3.84273 2.98188 3.84273 1.92121C3.84206 0.860545 2.98139 -0.00012207 1.92139 -0.00012207V-0.00012207Z"/>
</symbol>

<symbol id="footer-linkedin" viewBox="0 0 32 32">
  <path d="M31.992 32v-0.001h0.008v-11.736c0-5.741-1.236-10.164-7.948-10.164-3.227 0-5.392 1.771-6.276 3.449h-0.093v-2.913h-6.364v21.364h6.627v-10.579c0-2.785 0.528-5.479 3.977-5.479 3.399 0 3.449 3.179 3.449 5.657v10.401h6.62z"></path>
  <path d="M0.528 10.636h6.635v21.364h-6.635v-21.364z"></path>
  <path d="M3.843 0c-2.121 0-3.843 1.721-3.843 3.843s1.721 3.879 3.843 3.879c2.121 0 3.843-1.757 3.843-3.879-0.001-2.121-1.723-3.843-3.843-3.843v0z"></path>
</symbol>
<symbol id="footer-facebook" viewBox="0 0 32 32">
  <path d="M21.329 5.313h2.921v-5.088c-0.504-0.069-2.237-0.225-4.256-0.225-4.212 0-7.097 2.649-7.097 7.519v4.481h-4.648v5.688h4.648v14.312h5.699v-14.311h4.46l0.708-5.688h-5.169v-3.919c0.001-1.644 0.444-2.769 2.735-2.769z"></path>
</symbol>
<symbol id="footer-twitter" viewBox="0 0 32 32">
  <path d="M32 6.078c-1.19 0.522-2.458 0.868-3.78 1.036 1.36-0.812 2.398-2.088 2.886-3.626-1.268 0.756-2.668 1.29-4.16 1.588-1.204-1.282-2.92-2.076-4.792-2.076-3.632 0-6.556 2.948-6.556 6.562 0 0.52 0.044 1.020 0.152 1.496-5.454-0.266-10.28-2.88-13.522-6.862-0.566 0.982-0.898 2.106-0.898 3.316 0 2.272 1.17 4.286 2.914 5.452-1.054-0.020-2.088-0.326-2.964-0.808 0 0.020 0 0.046 0 0.072 0 3.188 2.274 5.836 5.256 6.446-0.534 0.146-1.116 0.216-1.72 0.216-0.42 0-0.844-0.024-1.242-0.112 0.85 2.598 3.262 4.508 6.13 4.57-2.232 1.746-5.066 2.798-8.134 2.798-0.538 0-1.054-0.024-1.57-0.090 2.906 1.874 6.35 2.944 10.064 2.944 12.072 0 18.672-10 18.672-18.668 0-0.29-0.010-0.57-0.024-0.848 1.302-0.924 2.396-2.078 3.288-3.406z"></path>
</symbol>
<symbol id="footer-instagram" viewBox="0 0 32 32">
  <path d="M31.969 9.408c-0.075-1.7-0.35-2.869-0.744-3.882-0.406-1.075-1.031-2.038-1.851-2.838-0.8-0.813-1.769-1.444-2.832-1.844-1.019-0.394-2.181-0.669-3.882-0.744-1.713-0.081-2.257-0.1-6.601-0.1s-4.888 0.019-6.595 0.094c-1.7 0.075-2.869 0.35-3.882 0.744-1.075 0.406-2.038 1.031-2.838 1.85-0.813 0.8-1.444 1.769-1.844 2.832-0.394 1.019-0.669 2.182-0.744 3.882-0.081 1.713-0.1 2.257-0.1 6.601s0.019 4.888 0.094 6.595c0.075 1.7 0.35 2.869 0.744 3.882 0.406 1.075 1.038 2.038 1.85 2.838 0.8 0.813 1.769 1.444 2.832 1.844 1.019 0.394 2.182 0.669 3.882 0.744 1.706 0.075 2.25 0.094 6.595 0.094s4.888-0.019 6.595-0.094c1.7-0.075 2.869-0.35 3.882-0.744 2.151-0.831 3.851-2.532 4.682-4.682 0.394-1.019 0.669-2.182 0.744-3.882 0.075-1.707 0.094-2.25 0.094-6.595s-0.006-4.888-0.081-6.595zM29.087 22.473c-0.069 1.563-0.331 2.407-0.55 2.969-0.538 1.394-1.644 2.5-3.038 3.038-0.563 0.219-1.413 0.481-2.969 0.55-1.688 0.075-2.194 0.094-6.464 0.094s-4.782-0.019-6.464-0.094c-1.563-0.069-2.407-0.331-2.969-0.55-0.694-0.256-1.325-0.663-1.838-1.194-0.531-0.519-0.938-1.144-1.194-1.838-0.219-0.563-0.481-1.413-0.55-2.969-0.075-1.688-0.094-2.194-0.094-6.464s0.019-4.782 0.094-6.464c0.069-1.563 0.331-2.407 0.55-2.969 0.256-0.694 0.663-1.325 1.2-1.838 0.519-0.531 1.144-0.938 1.838-1.194 0.563-0.219 1.413-0.481 2.969-0.55 1.688-0.075 2.194-0.094 6.464-0.094 4.276 0 4.782 0.019 6.464 0.094 1.563 0.069 2.407 0.331 2.969 0.55 0.694 0.256 1.325 0.662 1.838 1.194 0.531 0.519 0.938 1.144 1.194 1.838 0.219 0.563 0.481 1.413 0.55 2.969 0.075 1.688 0.094 2.194 0.094 6.464s-0.019 4.77-0.094 6.458z"></path>
  <path d="M16.059 7.783c-4.538 0-8.22 3.682-8.22 8.22s3.682 8.22 8.22 8.22c4.539 0 8.22-3.682 8.22-8.22s-3.682-8.22-8.22-8.22zM16.059 21.335c-2.944 0-5.332-2.388-5.332-5.332s2.388-5.332 5.332-5.332c2.945 0 5.332 2.388 5.332 5.332s-2.388 5.332-5.332 5.332z"></path>
  <path d="M26.524 7.458c0 1.060-0.859 1.919-1.919 1.919s-1.919-0.859-1.919-1.919c0-1.060 0.859-1.919 1.919-1.919s1.919 0.859 1.919 1.919z"></path>
</symbol>

<symbol id="close" width="8" height="8" viewBox="0 0 8 8">
  <path d="M8 0.805714L7.19429 0L4 3.19429L0.805714 0L0 0.805714L3.19429 4L0 7.19429L0.805714 8L4 4.80571L7.19429 8L8 7.19429L4.80571 4L8 0.805714Z"/>
</symbol>

<!-- Modal Icons -->

<symbol id="name-icon" viewBox="0 0 18 18">
  <path d="M9 9C10.6575 9 12 7.6575 12 6C12 4.3425 10.6575 3 9 3C7.3425 3 6 4.3425 6 6C6 7.6575 7.3425 9 9 9ZM9 10.5C6.9975 10.5 3 11.505 3 13.5V14.25C3 14.6625 3.3375 15 3.75 15H14.25C14.6625 15 15 14.6625 15 14.25V13.5C15 11.505 11.0025 10.5 9 10.5Z"/>
</symbol>

<symbol id="phone-icon" viewBox="0 0 18 24">
  <path d="M14.7263 13.8651L12.8881 13.6552C12.4467 13.6046 12.0125 13.7566 11.7013 14.0677L10.3697 15.3993C8.3217 14.3572 6.64276 12.6855 5.60067 10.6303L6.93947 9.29144C7.25065 8.98025 7.40263 8.54605 7.35197 8.1046L7.1421 6.28092C7.05526 5.55 6.44013 5 5.70198 5H4.45002C3.63226 5 2.952 5.68026 3.00266 6.49802C3.38621 12.6783 8.32894 17.6138 14.5019 17.9973C15.3197 18.048 15.9999 17.3677 15.9999 16.55V15.298C16.0072 14.5671 15.4572 13.952 14.7263 13.8651Z"/>
</symbol>

<symbol id="email-icon" viewBox="0 0 18 24">
  <path d="M15 6H3C2.175 6 1.5075 6.675 1.5075 7.5L1.5 16.5C1.5 17.325 2.175 18 3 18H15C15.825 18 16.5 17.325 16.5 16.5V7.5C16.5 6.675 15.825 6 15 6ZM14.7 9.1875L9.3975 12.5025C9.1575 12.6525 8.8425 12.6525 8.6025 12.5025L3.3 9.1875C3.1125 9.0675 3 8.865 3 8.6475C3 8.145 3.5475 7.845 3.975 8.1075L9 11.25L14.025 8.1075C14.4525 7.845 15 8.145 15 8.6475C15 8.865 14.8875 9.0675 14.7 9.1875Z"/>
</symbol>


<symbol id="check" width="16" height="16" viewBox="0 0 16 16">
  <path d="M11.4456 4.25506C11.6184 4.08965 11.8483 3.99821 12.0869 4.00003C12.3255 4.00184 12.5541 4.09677 12.7244 4.26478C12.8947 4.4328 12.9934 4.66075 12.9997 4.90055C13.006 5.14034 12.9194 5.37323 12.7582 5.55005L7.86357 11.7044C7.7794 11.7955 7.67782 11.8686 7.5649 11.9194C7.45198 11.9702 7.33003 11.9975 7.20636 11.9998C7.08268 12.0021 6.95981 11.9793 6.8451 11.9328C6.73038 11.8863 6.62618 11.817 6.53872 11.729L3.29283 8.46564C3.20243 8.38096 3.12993 8.27884 3.07965 8.16537C3.02936 8.05191 3.00232 7.92942 3.00014 7.80522C2.99796 7.68102 3.02069 7.55765 3.06696 7.44248C3.11323 7.3273 3.18211 7.22267 3.26947 7.13483C3.35684 7.047 3.4609 6.97775 3.57547 6.93123C3.69003 6.88471 3.81273 6.86186 3.93627 6.86405C4.0598 6.86624 4.18163 6.89343 4.29449 6.94398C4.40734 6.99454 4.50892 7.06743 4.59315 7.15831L7.16189 9.73967L11.4223 4.28219C11.4299 4.27269 11.4381 4.26364 11.4468 4.25506H11.4456Z"/>
</symbol>

<symbol id="subscribe" width="24" height="24" viewBox="0 0 24 24" fill="none">
  <path d="M24 2L0 13.25L7.66994 15.6172L19.5 6.375L10.5017 16.4913L10.509 16.4936L10.5 16.4913V22L14.8013 17.8183L20.2501 19.5L24 2Z" fill="white"/>
</symbol>


<symbol id="hamburger" width="32" height="22" viewBox="0 0 32 22" fill="none">
  <path d="M1.34814 20.0431H30.8866M1.34814 10.7354H30.8866M1.34814 1.42773H30.8866" stroke="#2E2F42" stroke-width="3" stroke-linecap="round" stroke-linejoin="round"/>
</symbol>

</defs>
</svg>
